# xmcd
#
# Track frame offsets:
#   150
#   22532
#   43053
#   69659
#   92084
#   114768
#   142720
#   158371
#   175589
#   203592
#   226490
#   251997
#   277826
#   301078
#
# Disc length: 4413 seconds
#
# Revision: 0
# Processed by: cddbd v1.5.1PL0 Copyright (c) Steve Scherf et al.
# Submitted via: Media_Universe 3.0
#
DISCID=9e113b0e
DTITLE=Diana Krall - Love In Paris
DYEAR=2002
DGENRE=Blues
TTITLE0=Love Letters
TTITLE1=When I look in Your Eyes
TTITLE2=And I Love Him
TTITLE3=If I Had You
TTITLE4=JUST THE WAY YOU ARE
TTITLE5=I've Got You Under My Skin
TTITLE6=Fever
TTITLE7=Girl From Ipanema
TTITLE8=Early Autumn
TTITLE9=Cry Me a River
TTITLE10=Squeeze Me
TTITLE11=The Night We Called It A Day
TTITLE12=Autumn Leaves (3) (1)
TTITLE13=Besame mucho
EXTD=EP
EXTT0=
EXTT1=
EXTT2=
EXTT3=
EXTT4=
EXTT5=
EXTT6=
EXTT7=
EXTT8=
EXTT9=
EXTT10=
EXTT11=
EXTT12=
EXTT13=
PLAYORDER=
